<?xml version="1.0" encoding="utf-8"?>
<!-- Generator: Adobe Illustrator 24.0.1, SVG Export Plug-In . SVG Version: 6.00 Build 0)  -->
<svg version="1.1" id="Layer_2" xmlns="http://www.w3.org/2000/svg" xmlns:xlink="http://www.w3.org/1999/xlink" x="0px" y="0px"
	 viewBox="0 0 125.7 37.9" style="enable-background:new 0 0 125.7 37.9;" xml:space="preserve">
<style type="text/css">
	.st0{fill:url(#SVGID_1_);}
	.st1{fill:#282828;}
</style>
<title>logo</title>
<linearGradient id="SVGID_1_" gradientUnits="userSpaceOnUse" x1="28.8958" y1="-77.0866" x2="55.0868" y2="-50.8956" gradientTransform="matrix(0.7071 -0.7071 0.7071 0.7071 35.7976 93.9771)">
	<stop  offset="0" style="stop-color:#398C4A"/>
	<stop  offset="0.4178" style="stop-color:#39B54A"/>
	<stop  offset="0.5605" style="stop-color:#55C458"/>
	<stop  offset="0.8669" style="stop-color:#9DEA7D"/>
	<stop  offset="1" style="stop-color:#BEFB8E"/>
</linearGradient>
<path class="st0" d="M1.7,19l19,19l19-19l-19-19L1.7,19z M28.2,18.4l-7.7,7.7l-7.7-7.7l7.7-7.7L28.2,18.4z"/>
<g>
	<path class="st1" d="M46.2,11.9h5.2l0.5,2.4H52c1.8-1.5,4-2.8,6.9-2.8c4.7,0,6.6,2.9,6.6,7.6v11.7h-6.4v-11c0-2.7-0.8-3.6-2.7-3.6
		c-1.6,0-2.6,0.7-4,1.8v12.7h-6.4V11.9z"/>
	<path class="st1" d="M69.7,23.6V11.9h6.4v11c0,2.7,0.8,3.6,2.7,3.6c1.6,0,2.6-0.6,3.8-2.1V11.9h6.3v18.8h-5.2l-0.5-2.6h-0.2
		c-1.8,1.9-3.8,3.1-6.7,3.1C71.7,31.2,69.7,28.3,69.7,23.6z"/>
	<path class="st1" d="M94.3,23.8v-7.7h-2.7v-4.2l3-0.2l0.7-5.1h4.8v5.1h4.7v4.4h-4.7v7.6c0,2.2,1,3,2.6,3c0.7,0,1.4-0.2,1.9-0.4
		l0.9,4.1c-1,0.3-2.5,0.7-4.4,0.7C96.2,31.2,94.3,28.2,94.3,23.8z"/>
	<path class="st1" d="M109.1,26.9c0-2.5,1.8-4.5,4.3-4.5s4.3,1.9,4.3,4.5c0,2.5-1.8,4.4-4.3,4.4S109.1,29.3,109.1,26.9z"/>
</g>
</svg>
